<?xml version="1.0" encoding="iso-8859-1"?>
<!-- Uploaded to: SVG Repo, www.svgrepo.com, Generator: SVG Repo Mixer Tools -->
<svg height="800px" width="800px" version="1.1" id="Layer_1" xmlns="http://www.w3.org/2000/svg" xmlns:xlink="http://www.w3.org/1999/xlink" 
	 viewBox="0 0 512.002 512.002" xml:space="preserve">
<path style="fill:#57555C;" d="M472.081,72.692c-22.935-21.184-52.754-32.85-83.978-32.85c-68.259,0-123.788,55.529-123.788,123.78
	c0,45.655,19.583,78.992,63.504,108.086c24.008,15.893,64.296,49.428,64.296,95.371c0,47.666-32.867,87.694-77.093,98.906
	c0.421-13.372-0.908-29.791-6.324-48.545c-14.795-51.253-68.16-96.693-99.863-132.622c-21.688-24.582-33.89-67.362-39.438-91.946
	c21.891-14.186,36.445-38.718,36.445-66.744c0-43.966-35.645-79.608-79.611-79.608s-79.607,35.642-79.607,79.608
	c0,32.974,20.05,61.266,48.619,73.352c1.825,16.022,4.128,43.599,0.52,58.389c-5.284,21.663-31.703,40.157-16.379,80.313
	s23.777,43.327,23.249,64.99c-0.45,18.421-0.136,37.468-0.033,42.798H92.414c-18.283,0-33.106,14.823-33.106,33.108v23.956h43.327
	h42.27c0,0,119.763,0,163.268,0c44.965,0,117.762-67.38,117.762-135.957c0-61.746-49.783-103.924-79.437-123.565
	c-34.36-22.753-48.362-45.902-48.362-79.892c0-49.609,40.354-89.964,89.972-89.964c22.687,0,44.367,8.479,61.027,23.868
	c6.836,6.324,17.536,5.928,23.893-0.942C479.363,89.723,478.934,79.024,472.081,72.692z"/>
<path style="fill:#3B3A3C;" d="M308.607,417.439c-14.795-51.253-68.161-96.693-99.863-132.622
	c-21.688-24.582-33.89-67.362-39.438-91.946c21.891-14.186,36.445-38.718,36.445-66.744c0-10.886-0.839-18.149-4.794-27.6
	l9.348-12.943c18.326-21.573,17.977-55.916-3.595-74.242h-0.359l-38.47,46.918c-11.607-6.613-27.427-11.74-41.74-11.74
	c-4.165,0-8.161,0.609-12.152,1.225c38.155,5.887,67.459,38.58,67.459,78.383c0,19.032-6.712,36.453-17.875,50.116
	c-11.007,13.473-15.479,31.071-10.156,47.633c6.859,21.343,16.942,44.977,31.024,60.939c31.703,35.93,85.068,81.369,99.863,132.622
	c5.416,18.753,22.976,42.783,30.583,38.557C314.477,444.71,312.747,431.772,308.607,417.439z"/>
<path style="fill:#787780;" d="M120.42,257.87c2.448-10.036,2.174-25.96,1.176-40.167c-0.739-10.501-6.593-19.719-15.308-25.625
	c-21.123-14.315-35.006-38.512-35.006-65.95c0-39.744,29.209-72.405,67.281-78.365c-4.046-0.633-8.108-1.243-12.33-1.243
	c-12.967,0-25.198,3.12-36.016,8.62L52.56,8.966l0,0c-21.572,18.326-24.203,50.671-5.877,72.243l7.795,10.401
	c-5.033,10.442-7.852,22.151-7.852,34.518c0,32.974,20.05,61.266,48.618,73.352c1.825,16.022,4.128,43.599,0.52,58.389
	c-5.284,21.663-31.703,40.157-16.379,80.313c15.322,40.157,23.776,43.327,23.249,64.99c-0.45,18.421-0.136,37.468-0.033,42.798
	H92.412c-18.284,0-33.106,14.822-33.106,33.106v23.959h24.656v-23.956c0-18.285,14.823-33.108,33.108-33.108h10.186
	c-0.104-5.33-0.416-24.377,0.033-42.798c0.529-21.663-7.925-24.833-23.249-64.99C88.717,298.026,115.136,279.533,120.42,257.87z"/>
<g>
	<path style="fill:#77DD00;" d="M87.594,114.896l-2.861,10.711l-2.38-10.711H71.81c0,10.559,8.561,19.119,19.119,19.119
		s19.119-8.56,19.119-19.119H87.594z"/>
	<path style="fill:#77DD00;" d="M149.539,114.896l-2.861,10.711l-2.38-10.711H135.9c0,10.559,8.561,19.119,19.119,19.119
		c10.558,0,19.119-8.56,19.119-19.119H149.539z"/>
</g>
<g>
	<path style="fill:#1C2042;" d="M485.849,84.996c-0.264-6.671-3.11-12.839-8.013-17.369c-24.432-22.568-56.206-34.998-89.467-34.998
		c-15.708,0-31.09,2.749-45.719,8.17c-4.189,1.553-6.326,6.207-4.774,10.396c1.552,4.188,6.203,6.325,10.396,4.774
		c12.823-4.752,26.313-7.163,40.096-7.163c29.18,0,57.055,10.903,78.489,30.702c1.729,1.597,2.731,3.773,2.825,6.126
		c0.093,2.355-0.737,4.604-2.332,6.33c-3.307,3.572-8.898,3.794-12.466,0.493c-18.161-16.776-41.784-26.014-66.516-26.014
		c-54.071,0-98.061,43.987-98.061,98.053c0,36.598,15.547,62.508,51.984,86.636c28.315,18.753,75.816,58.866,75.816,116.821
		c0,4.467,3.621,8.089,8.089,8.089s8.089-3.622,8.089-8.089c0-65.516-52.04-109.765-83.061-130.31
		c-32.196-21.319-44.738-41.827-44.738-73.147c0-45.145,36.733-81.874,81.883-81.874c20.651,0,40.376,7.714,55.534,21.716
		c10.112,9.356,25.957,8.734,35.326-1.389C483.762,98.047,486.114,91.669,485.849,84.996z"/>
	<path style="fill:#1C2042;" d="M423.867,390.9c-4.288-1.264-8.783,1.188-10.046,5.473c-15.784,53.56-71.139,99.451-105.384,99.451
		H151.144V374.99c0-4.467-3.621-8.089-8.089-8.089c-4.469,0-8.089,3.622-8.089,8.089v120.833H67.661v-15.867
		c0-13.795,11.223-25.019,25.017-25.019h10.187c2.173,0,4.254-0.874,5.775-2.425s2.356-3.649,2.314-5.821
		c-0.105-5.383-0.411-24.352,0.032-42.445c0.373-15.333-3.378-23.014-9.594-35.738c-3.76-7.699-8.441-17.28-14.184-32.334
		c-1.68-4.403-2.867-8.701-3.53-12.776c-0.717-4.409-4.868-7.41-9.282-6.686c-4.409,0.717-7.402,4.873-6.685,9.283
		c0.838,5.157,2.314,10.522,4.383,15.947c6.002,15.732,11.065,26.097,14.763,33.666c5.823,11.923,8.235,16.858,7.957,28.243
		c-0.315,12.898-0.258,26.207-0.159,34.907h-1.975c-22.716,0-41.195,18.482-41.195,41.197v23.956c0,4.467,3.621,8.089,8.089,8.089
		h248.864c20.825,0,46.351-12.192,70.034-33.45c24.193-21.715,42.733-50.001,50.869-77.606
		C430.602,396.659,428.152,392.163,423.867,390.9z"/>
	<path style="fill:#1C2042;" d="M85.221,281.212c-4.025-1.943-8.861-0.253-10.802,3.769c-1.197,2.48-2.206,4.796-3.084,7.083
		c-1.601,4.171,0.482,8.85,4.652,10.451c0.955,0.366,1.934,0.539,2.898,0.539c3.253,0,6.318-1.975,7.554-5.192
		c0.715-1.864,1.55-3.776,2.549-5.848C90.931,287.991,89.245,283.155,85.221,281.212z"/>
	<path style="fill:#1C2042;" d="M87.966,205.807c2.408,23.188,2.495,41.632,0.204,51.022c-1.059,4.34,1.601,8.718,5.942,9.776
		c4.337,1.06,8.717-1.601,9.775-5.941c3.736-15.314,1.877-41.745-0.34-61.222c-0.331-2.9-2.197-5.397-4.886-6.535
		c-26.536-11.226-43.681-37.095-43.681-65.902c0-39.436,32.082-71.519,71.519-71.519s71.522,32.083,71.522,71.519
		c0,24.251-12.245,46.664-32.755,59.955c-2.844,1.842-4.238,5.263-3.491,8.569c5.52,24.462,18.223,69.4,41.263,95.517
		c7.123,8.072,15.219,16.51,23.79,25.442c29.717,30.969,63.398,66.072,74.367,104.072c4.463,15.456,6.486,30.949,6.011,46.047
		c-0.08,2.539,1.038,4.968,3.018,6.56c1.453,1.167,3.244,1.784,5.067,1.784c0.663,0,1.331-0.082,1.988-0.248
		c48.984-12.419,83.194-56.315,83.194-106.747c0-49.73-42.553-85.325-67.918-102.116c-41.413-27.433-59.883-58.688-59.883-101.341
		c0-22.51,6.5-44.346,18.796-63.144c2.446-3.738,1.398-8.753-2.342-11.198c-3.739-2.446-8.753-1.397-11.198,2.342
		c-14.024,21.439-21.436,46.337-21.436,72.001c0,48.664,20.702,84.079,67.129,114.831c22.659,15,60.671,46.46,60.671,88.626
		c0,39.494-24.601,74.29-60.973,87.928c-0.54-13.176-2.744-26.522-6.581-39.811c-12.076-41.835-47.226-78.467-78.238-110.786
		c-8.451-8.808-16.432-17.126-23.332-24.944c-19.158-21.715-30.675-59.417-36.379-83.086c22.274-16.552,35.41-42.409,35.41-70.25
		c0-9.616-1.578-18.863-4.45-27.528c0.153-0.171,0.307-0.341,0.448-0.529l8.192-10.932c10.151-12.05,15.033-27.323,13.756-43.036
		c-1.286-15.798-8.647-30.151-20.727-40.413c-1.656-1.406-3.799-2.088-5.974-1.891c-2.165,0.198-4.158,1.259-5.532,2.943
		l-34.798,42.67c-11.658-5.742-24.762-8.981-38.613-8.981c-11.687,0-22.84,2.317-33.047,6.486L58.534,2.978
		c-1.374-1.685-3.367-2.745-5.532-2.943c-2.16-0.2-4.319,0.483-5.974,1.891c-24.872,21.129-27.974,58.512-6.971,83.45l5.644,7.533
		c-4.442,10.487-6.9,22.011-6.9,34.097C38.802,160.711,57.943,191.135,87.966,205.807z M206.735,22.85
		c5.338,6.657,8.575,14.749,9.281,23.442c0.935,11.491-2.661,22.659-10.126,31.445c-0.107,0.126-0.209,0.255-0.308,0.386
		l-3.439,4.589c-5.928-10.085-13.797-18.897-23.116-25.888L206.735,22.85z M52.861,75.482c-0.099-0.132-0.203-0.26-0.308-0.386
		c-13.579-15.983-13.468-39.076-0.837-54.88l27.109,33.241c-9.665,6.286-18.022,14.414-24.56,23.897L52.861,75.482z"/>
	<path style="fill:#1C2042;" d="M305.986,80.192c1.972,0,3.95-0.717,5.507-2.166c1.725-1.604,2.434-2.151,3.99-3.349
		c0.488-0.376,1.035-0.797,1.686-1.307c3.518-2.754,4.137-7.838,1.383-11.356c-2.755-3.517-7.837-4.135-11.355-1.383
		c-0.612,0.479-1.127,0.875-1.586,1.229c-1.662,1.28-2.861,2.204-5.138,4.321c-3.27,3.043-3.456,8.162-0.413,11.433
		C301.655,79.326,303.817,80.192,305.986,80.192z"/>
</g>
</svg>